Encoded by Ratzz.










General
Complete name                    : To Catch A Thief 1955 720 Brrip x264 Ratzz.mp4
Format                           : MP4
Format profile                   : Base Media
Codec ID                         : isom
File size                        : 750 MiB
Duration                         : 1h 46mn
Overall bit rate                 : 984 Kbps

Video
ID                               : 1
Format                           : AVC
Format/Info                      : Advanced Video Codec
Format profile                   : High@L3.1
Format settings, CABAC           : Yes
Format settings, ReFrames        : 3 frames
Codec ID                         : avc1
Codec ID/Info                    : Advanced Video Coding
Duration                         : 1h 46mn
Bit rate mode                    : Variable
Bit rate                         : 918 Kbps
Maximum bit rate                 : 17.5 Mbps
Width                            : 1 280 pixels
Height                           : 720 pixels
Display aspect ratio             : 16:9
Frame rate mode                  : Constant
Frame rate                       : 23.976 fps
Color space                      : YUV
Chroma subsampling               : 4:2:0
Bit depth                        : 8 bits
Scan type                        : Progressive
Bits/(Pixel*Frame)               : 0.042
Stream size                      : 699 MiB (93%)
Title                            : To Catch A Thief 1955 720 Brrip x264 Ratzz
Writing library                  : x264 core 120 r2120 0c7dab9

Audio
ID                               : 2
Format                           : AAC
Format/Info                      : Advanced Audio Codec
Format profile                   : HE-AAC / LC
Codec ID                         : 40
Duration                         : 1h 46mn
Bit rate mode                    : Variable
Bit rate                         : 64.0 Kbps
Maximum bit rate                 : 71.8 Kbps
Channel(s)                       : 2 channels
Channel positions                : Front: L R
Sampling rate                    : 48.0 KHz / 24.0 KHz
Compression mode                 : Lossy
Stream size                      : 48.8 MiB (7%)
Language                         : English


Subtitles                        : eng .srt file included


Screen shots :

[img]http://img543.imageshack.us/img543/7006/tocatchathief1955720brr.jpg[/img]


[img]http://img528.imageshack.us/img528/7006/tocatchathief1955720brr.jpg[/img]


[img]http://img580.imageshack.us/img580/7006/tocatchathief1955720brr.jpg[/img]






Poster :



[img]http://img141.imageshack.us/img141/6380/poster1xo.jpg[/img]




pls pls seed back after download and provide feedback.
thank you.